<svg xmlns="http://www.w3.org/2000/svg" viewBox="0 0 620 510" width="620" height="510">
  <!-- ISH Crown Logo - Gold Tower, Black Wings -->
  <defs>
    <linearGradient id="gold" x1="0%" y1="100%" x2="0%" y2="0%">
      <stop offset="0%" stop-color="#B8860B"/>
      <stop offset="100%" stop-color="#D4A853"/>
    </linearGradient>
  </defs>

  <!-- Wings - Black -->
  <polygon fill="#1a1a1a" points="172.5 459.5 172.5 457.5 83.5 257.5 172.5 297.5 172.5 263.5 .5 183.5 109.5 463.5 172.5 459.5"/>
  <polygon fill="#1a1a1a" points="514.5 464.5 619.5 184.5 448.5 263.5 448.5 296.5 537.5 257.5 449.5 458.5 514.5 464.5"/>

  <!-- Tower - Gold Gradient -->
  <polygon fill="url(#gold)" points="376.5 457.5 431.5 458.5 431.5 207.91 376.5 250.77 376.5 457.5"/>
  <path fill="url(#gold)" d="M433.5,181.5c-16-19-33-38-50-57-2-3-4-5-5-8l-2,2v122.74l57-44.42v-15.31Z"/>
  <path fill="url(#gold)" d="M305.5,56.22c.9-.46,1.92-.72,3-.72s2.1.26,3,.72v235.67l52-40.53V99.5L310.5.5l-54,100v234.26l49-38.19V56.22Z"/>
  <polygon fill="url(#gold)" points="243.5 344.89 243.5 117.5 240.5 119.5 188.5 181.5 188.5 387.76 243.5 344.89"/>
  <polygon fill="url(#gold)" points="308.5 457.5 363.5 457.5 363.5 260.9 308.5 303.77 308.5 457.5"/>
  <polygon fill="url(#gold)" points="188.5 458.5 243.5 457.5 243.5 354.42 188.5 397.29 188.5 458.5"/>
  <polygon fill="url(#gold)" points="256.5 457.5 302.5 457.5 302.5 308.44 256.5 344.29 256.5 457.5"/>

  <!-- Base - Black -->
  <path fill="#1a1a1a" d="M516.5,477.5c-16-1-31-3-47-4-105-8-211-5-316,0-15,3-31,1-46,4-1,0-3,1-3,2v30h413c2,0,0-5,0-7,0-4,1-24-1-25Z"/>
</svg>